<?xml version="1.0" standalone="no"?>
<!DOCTYPE svg PUBLIC "-//W3C//DTD SVG 20010904//EN"
 "http://www.w3.org/TR/2001/REC-SVG-20010904/DTD/svg10.dtd">
<svg version="1.0" xmlns="http://www.w3.org/2000/svg"
 width="500.000000pt" height="500.000000pt" viewBox="0 0 500.000000 500.000000"
 preserveAspectRatio="xMidYMid meet">

<g transform="translate(0.000000,500.000000) scale(0.100000,-0.100000)"
fill="#000000" stroke="none">
<path d="M0 2500 l0 -2500 2500 0 2500 0 0 2500 0 2500 -2500 0 -2500 0 0
-2500z m2517 1928 c49 -54 110 -186 373 -808 141 -335 159 -375 181 -388 24
-15 56 -17 749 -33 261 -6 495 -15 520 -19 l45 -7 -70 -8 c-64 -7 -73 -11
-106 -46 -20 -21 -33 -42 -30 -45 3 -4 -5 -1 -19 6 -19 10 -132 15 -460 21
-251 4 -456 12 -484 19 -86 19 -158 60 -227 129 -74 75 -126 168 -249 451 -40
91 -99 227 -132 303 -92 209 -116 236 -151 167 -31 -61 -122 -259 -202 -440
-193 -438 -219 -484 -300 -540 -105 -72 -128 -75 -685 -86 -190 -3 -366 -10
-392 -14 -52 -8 -155 5 -174 21 -7 6 -14 20 -16 32 -2 12 -14 27 -28 34 -21
11 4 13 160 14 102 0 196 2 210 4 14 2 187 6 385 9 460 9 482 10 513 45 21 23
133 280 387 881 103 245 135 311 146 305 5 -4 9 -1 9 4 0 19 26 12 47 -11z
m-1957 -1324 c0 -8 -5 -12 -10 -9 -6 4 -8 11 -5 16 9 14 15 11 15 -7z m3930
-4 c0 -4 -6 -10 -14 -13 -10 -4 -12 0 -9 14 5 18 23 18 23 -1z m-3737 -283
c55 -46 69 -67 46 -67 -14 0 -174 161 -190 192 -7 13 10 1 37 -27 27 -27 75
-72 107 -98z m3669 96 c-11 -15 -32 -39 -48 -53 -19 -18 -15 -8 16 33 42 57
71 75 32 20z m-82 -77 c0 -2 -7 -9 -15 -16 -13 -11 -14 -10 -9 4 5 14 24 23
24 12z m-3315 -234 c28 -16 91 -65 140 -107 50 -43 100 -84 113 -93 12 -8 21
-20 19 -26 -3 -6 3 -20 12 -30 9 -11 -7 -2 -35 20 -28 21 -50 41 -48 43 5 6
-53 51 -66 51 -11 0 -129 96 -219 178 l-36 34 35 -20 c19 -11 58 -34 85 -50z
m3065 42 c-8 -8 -23 -20 -34 -26 -19 -10 -18 -8 3 16 26 27 53 37 31 10z
m-531 -160 c-22 -23 -49 -32 -49 -16 0 4 14 19 32 34 38 31 51 18 17 -18z
m351 16 c-36 -30 -50 -36 -50 -22 0 7 69 52 80 52 3 -1 -11 -14 -30 -30z m-62
-32 c-5 -20 -148 -130 -163 -125 -7 3 -16 1 -19 -6 -3 -9 -5 -9 -5 0 -1 15 39
44 51 37 5 -3 7 -1 6 4 -2 5 26 30 62 55 75 53 71 50 68 35z m-2460 -158 c8
-14 8 -18 -1 -16 -23 4 -51 24 -53 39 -2 13 2 14 20 6 12 -6 27 -19 34 -29z
m2253 -8 c-6 -11 -18 -22 -26 -26 -17 -6 -13 4 14 36 19 22 26 16 12 -10z
m-105 -77 c-14 -14 -30 -25 -36 -25 -5 0 -10 -4 -10 -9 0 -5 -19 -27 -41 -50
l-42 -41 5 -83 c5 -74 4 -79 -8 -52 -27 61 -27 91 -3 141 13 26 39 59 58 73
18 14 47 41 64 59 18 18 33 29 35 23 2 -6 -8 -22 -22 -36z m-2015 -35 c10 -6
26 -25 35 -43 l16 -32 -23 25 c-13 14 -33 33 -44 42 -22 20 -14 24 16 8z m159
-183 c0 -15 -13 -60 -135 -462 -54 -176 -109 -359 -123 -407 -26 -87 -26 -87
-56 -84 -17 2 -36 4 -42 5 -8 1 -9 17 -3 52 10 63 20 97 130 449 48 157 98
322 110 367 23 87 25 88 92 92 16 0 27 -4 27 -12z m1759 -127 c0 -9 -4 -8 -9
5 -5 11 -9 27 -9 35 0 9 4 8 9 -5 5 -11 9 -27 9 -35z m39 -130 c0 -8 -6 1 -13
20 -7 19 -13 42 -13 50 0 8 6 -1 13 -20 7 -19 13 -42 13 -50z m30 -95 c0 -5
-6 4 -13 20 -8 17 -14 37 -14 45 0 8 7 -1 14 -20 7 -19 13 -39 13 -45z m30
-95 c0 -8 -6 1 -13 20 -7 19 -13 42 -13 50 0 8 6 -1 13 -20 7 -19 13 -42 13
-50z m30 -100 c0 -8 -6 1 -13 20 -7 19 -13 42 -13 50 0 8 6 -1 13 -20 7 -19
13 -42 13 -50z m-990 -47 c30 -16 67 -40 82 -54 15 -15 43 -34 61 -43 43 -21
146 -112 137 -121 -8 -8 -82 42 -132 89 -20 18 -36 31 -36 29 0 -3 -19 12 -42
31 -57 49 -120 78 -165 76 -52 -3 -62 1 -33 10 45 14 72 11 128 -17z m1029
-77 c-4 -11 -37 79 -36 98 0 6 9 -11 20 -38 11 -27 18 -54 16 -60z m-1207 44
c-14 -11 -29 -20 -33 -20 -4 0 -18 -9 -30 -21 -12 -12 -53 -43 -92 -70 -38
-26 -119 -85 -180 -129 -60 -45 -139 -103 -175 -129 -36 -27 -76 -54 -90 -61
-51 -26 63 79 126 116 35 20 92 61 127 90 35 29 88 70 119 91 30 21 80 57 111
81 30 23 64 45 76 47 12 2 29 11 37 20 9 9 19 13 23 10 3 -4 -5 -15 -19 -25z
m510 -221 c17 -13 18 -17 5 -10 -33 17 -51 31 -40 31 6 0 21 -10 35 -21z m50
-29 c0 -5 3 -9 8 -9 21 4 35 -5 79 -46 65 -61 37 -57 -42 7 -67 54 -72 58 -55
58 6 0 10 -4 10 -10z m196 -131 c19 -22 19 -22 -3 -10 -13 6 -23 16 -23 21 0
15 5 12 26 -11z m139 -97 c-3 -3 -11 0 -18 7 -9 10 -8 11 6 5 10 -3 15 -9 12
-12z m-1600 -22 c-3 -5 -12 -10 -18 -10 -7 0 -6 4 3 10 19 12 23 12 15 0z
m-442 -50 c3 -11 1 -18 -4 -14 -5 3 -9 12 -9 20 0 20 7 17 13 -6z m387 10 c0
-5 -10 -15 -22 -21 l-23 -12 20 21 c23 24 25 25 25 12z m1731 -17 c13 -17 13
-17 -6 -3 -11 8 -22 16 -24 17 -2 2 0 3 6 3 6 0 17 -8 24 -17z"/>
</g>
</svg>
